<svg xmlns="http://www.w3.org/2000/svg" viewBox="0 0 155.22 138.63"><g id="Layer_2" data-name="Layer 2"><g id="Layer_2-2" data-name="Layer 2"><path d="M77.74,16.53c1.2-1.27,2.33-2.55,3.56-3.75C90.63,3.7,101.81-.59,114.82.23a42.64,42.64,0,0,1,39.72,35.7c2.36,14.13-1.4,26.78-11.44,37-21.44,21.81-43.16,43.34-64.77,65-.23.23-.49.43-.8.71-.42-.4-.81-.74-1.17-1.1q-31.65-31.71-63.31-63.4A43.39,43.39,0,0,1,.48,49.44c-3-19.57,8.37-39.42,27-46.3C44.8-3.27,60.34.22,73.84,12.85c1.15,1.07,2.24,2.22,3.36,3.33C77.27,16.24,77.36,16.28,77.74,16.53Zm0,114.52c6.06-6.14,12-12.18,18-18.17C110.24,98.26,125,83.81,139.34,69,148,60,151.05,49,149,36.66,145,12.93,119.44-.95,97.24,8.45a38.36,38.36,0,0,0-12.36,8.39c-2.41,2.44-4.83,4.86-7.33,7.37-2.47-2.48-4.82-4.86-7.19-7.2C60.68,7.47,49.1,3.77,35.76,6.3A37.35,37.35,0,0,0,5.61,40.42c-.83,11.7,3.11,21.73,11.43,30q29.73,29.67,59.41,59.39C76.78,130.18,77.13,130.49,77.73,131.05Z"/></g></g></svg>