<svg xmlns="http://www.w3.org/2000/svg" viewBox="0 0 245.94 72.05"><defs><style>.cls-1,.cls-2{fill:#231f20;stroke:#231f20;}.cls-2{stroke-miterlimit:10;}</style></defs><g id="Layer_2" data-name="Layer 2"><g id="Layer_2-2" data-name="Layer 2"><path class="cls-1" d="M26.5,2.7H.5V.8h54V2.7h-26V70.8h-2Z"/><path class="cls-1" d="M64.7.8h2v70h-2Z"/><path class="cls-1" d="M122.7,6.85q7.29,6,7.3,17t-7.3,17q-7.31,6-20.2,6H80.8v24h-2V.8h23.7Q115.4.8,122.7,6.85ZM121.45,39.4Q128,33.89,128,23.8T121.45,8.2Q114.9,2.7,102.7,2.7H80.8V44.9h21.9Q114.9,44.9,121.45,39.4Z"/><path class="cls-1" d="M145.1,68.35a25.44,25.44,0,0,1-10.3-7.15l1.4-1.3a25.29,25.29,0,0,0,9.7,6.65,34.12,34.12,0,0,0,13.4,2.65q10.89,0,16.45-4.35A13.65,13.65,0,0,0,181.3,53.6a12.33,12.33,0,0,0-2.9-8.6,18.22,18.22,0,0,0-7.15-4.8,96.26,96.26,0,0,0-11.45-3.3,103,103,0,0,1-12.2-3.65,19.17,19.17,0,0,1-7.65-5.4q-3.15-3.64-3.15-9.75a16.26,16.26,0,0,1,2.5-8.8,17.13,17.13,0,0,1,7.8-6.4A31.71,31.71,0,0,1,160.2.5a35.39,35.39,0,0,1,11,1.75,32.14,32.14,0,0,1,9.3,4.65l-1.1,1.6A30.62,30.62,0,0,0,170.25,4,34,34,0,0,0,160.3,2.4q-10.5,0-16,4.45a14,14,0,0,0-5.5,11.35,12.48,12.48,0,0,0,2.9,8.65,17.74,17.74,0,0,0,7.2,4.85,109,109,0,0,0,11.6,3.4,105.25,105.25,0,0,1,12.1,3.65,19.16,19.16,0,0,1,7.6,5.3q3.09,3.56,3.1,9.55a15.85,15.85,0,0,1-2.6,8.8,17.62,17.62,0,0,1-7.95,6.35A33.22,33.22,0,0,1,159.4,71.1,37.32,37.32,0,0,1,145.1,68.35Z"/><path class="cls-1" d="M216.55,47V70.8h-2V47L186.05.8h2.3l27.2,44.1L242.75.8h2.3Z"/><rect class="cls-2" x="203.48" y="70.05" width="24.14" height="1.5"/><path class="cls-2" d="M224.59,23.27a14.79,14.79,0,0,1-8.76-3.12c-8.73-6.32-16.8-.27-17.13,0L197.78,19c.09-.07,9.28-7,18.93,0,8.67,6.27,15.07.33,15.34.07l1,1.08A13.26,13.26,0,0,1,224.59,23.27Z"/></g></g></svg>